<?xml version="1.0" encoding="utf-8"?><!-- Uploaded to: SVG Repo, www.svgrepo.com, Generator: SVG Repo Mixer Tools -->
<svg width="800px" height="800px" viewBox="0 0 24 24" fill="none" xmlns="http://www.w3.org/2000/svg">
<path fill-rule="evenodd" clip-rule="evenodd" d="M2.25 12C2.25 6.61522 6.61522 2.25 12 2.25C17.3848 2.25 21.75 6.61522 21.75 12C21.75 17.3848 17.3848 21.75 12 21.75C6.61522 21.75 2.25 17.3848 2.25 12ZM14.5981 10.5C14.1054 9.64672 11.8249 8.30987 10.3308 7.49936C9.74252 7.1802 9.44837 7.02063 9.20597 7.16057C8.96357 7.30052 8.95469 7.63506 8.93694 8.30412C8.89184 10.0033 8.9093 12.6467 9.40194 13.5C9.89458 14.3533 12.1752 15.6901 13.6692 16.5006C14.2575 16.8198 14.5517 16.9794 14.7941 16.8394C15.0365 16.6995 15.0453 16.3649 15.0631 15.6959C15.1082 13.9967 15.0907 11.3533 14.5981 10.5Z" fill="#000000"/>
</svg>